<svg width="1512" height="982" viewBox="0 0 1512 982" fill="none" xmlns="http://www.w3.org/2000/svg">
<rect width="1512" height="982" fill="black"/>
<path d="M466.5 566.65C466.033 566.65 465.217 566.417 464.05 565.95C462.883 565.717 462.3 565.25 462.3 564.55C462.3 564.317 462.417 564.083 462.65 563.85C462.883 563.617 463 563.5 463 563.5C464.633 563.033 465.333 562.8 465.1 562.8C465.1 563.033 465.917 562.917 467.55 562.45C471.517 561.05 474.9 559.067 477.7 556.5C480.733 553.7 483.3 550.433 485.4 546.7C496.367 528.5 506.867 510.067 516.9 491.4C526.933 472.5 536.967 453.717 547 435.05C549.8 430.15 552.483 425.133 555.05 420C557.617 414.867 560.183 409.733 562.75 404.6C563.917 401.8 565.083 399 566.25 396.2C567.65 393.4 569.167 390.717 570.8 388.15C572.667 384.883 575.583 382.083 579.55 379.75C583.75 377.183 587.717 375.317 591.45 374.15H583.05C578.383 374.15 571.967 374.5 563.8 375.2C555.867 375.667 547.467 376.6 538.6 378C529.733 379.4 521.8 381.5 514.8 384.3C508.033 387.1 503.367 390.833 500.8 395.5C498.467 399.7 497.3 403.783 497.3 407.75C497.3 412.417 498.35 415.567 500.45 417.2C502.55 418.833 503.6 419.883 503.6 420.35C503.6 420.817 503.25 421.283 502.55 421.75C501.85 422.217 501.267 422.45 500.8 422.45C499.4 422.45 497.65 421.05 495.55 418.25C493.45 415.45 491.467 412.417 489.6 409.15C487.967 405.65 486.917 403.317 486.45 402.15C485.75 399.583 485.4 397.017 485.4 394.45C485.4 388.15 487.5 383.367 491.7 380.1C496.133 376.6 501.5 374.15 507.8 372.75C514.1 371.35 520.4 370.533 526.7 370.3C533.233 369.833 538.6 369.6 542.8 369.6C554.467 369.6 566.133 369.367 577.8 368.9C589.467 368.2 601.017 367.85 612.45 367.85C623.417 367.85 634.15 368.667 644.65 370.3C655.383 371.7 665.067 374.617 673.7 379.05C682.333 383.483 689.217 389.783 694.35 397.95C699.717 406.117 702.4 416.85 702.4 430.15C702.4 442.283 700.067 454.767 695.4 467.6C690.967 480.2 685.367 491.517 678.6 501.55C650.133 544.25 610.233 565.6 558.9 565.6C550.967 565.6 542.8 564.783 534.4 563.15C526.233 561.517 518.533 558.833 511.3 555.1C509.667 554.167 507.917 553.467 506.05 553C504.417 552.3 502.667 551.95 500.8 551.95C496.833 551.95 492.867 553.233 488.9 555.8C484.933 558.133 481.083 560.467 477.35 562.8C473.617 565.367 470 566.65 466.5 566.65ZM554.7 560.7C572.2 560.7 588.533 557.317 603.7 550.55C618.867 543.783 632.167 534.333 643.6 522.2C655.033 509.833 664.017 495.717 670.55 479.85C673.583 472.383 676.033 464.567 677.9 456.4C680 448.233 681.05 440.183 681.05 432.25C681.05 414.05 675.45 400.05 664.25 390.25C653.283 380.217 638.817 375.2 620.85 375.2C616.417 375.2 611.75 375.667 606.85 376.6C602.183 377.533 598.333 379.75 595.3 383.25C592.267 386.983 589.35 391.067 586.55 395.5C583.983 399.933 581.417 404.25 578.85 408.45C573.483 417.783 568.35 427.467 563.45 437.5C558.783 447.3 554 456.983 549.1 466.55C541.4 481.25 533.817 496.067 526.35 511C524.717 514.267 522.967 517.65 521.1 521.15C519.467 524.417 517.833 527.683 516.2 530.95C515.733 532.117 515.267 533.4 514.8 534.8C514.333 535.967 514.1 537.367 514.1 539C514.1 542.033 515.033 544.6 516.9 546.7C518.767 548.8 520.75 550.783 522.85 552.65C527.283 555.917 532.417 558.133 538.25 559.3C544.083 560.233 549.567 560.7 554.7 560.7ZM779.042 577.15C777.175 577.15 775.658 576.8 774.492 576.1C773.325 575.633 772.858 574.467 773.092 572.6C773.092 571.9 773.442 570.85 774.142 569.45C774.842 568.05 775.308 567 775.542 566.3C776.708 563.033 777.758 559.767 778.692 556.5C779.625 553 780.558 549.733 781.492 546.7C784.758 533.867 787.792 521.15 790.592 508.55C793.392 495.717 795.608 482.883 797.242 470.05C797.708 466.783 798.058 463.05 798.292 458.85C798.525 454.417 798.642 449.75 798.642 444.85C798.642 433.65 797.475 421.75 795.142 409.15C792.808 396.55 788.258 386.283 781.492 378.35H754.892C751.392 378.35 746.492 378.583 740.192 379.05C734.125 379.517 727.825 380.567 721.292 382.2C714.992 383.833 709.742 386.517 705.542 390.25C701.342 393.983 699.475 399 699.942 405.3C700.175 407.167 700.875 409.733 702.042 413C703.208 416.033 704.025 417.9 704.492 418.6L700.642 421.4C699.242 418.833 697.492 415.917 695.392 412.65C693.292 409.15 691.425 405.767 689.792 402.5C688.158 399.233 687.225 396.783 686.992 395.15C686.758 392.817 686.875 389.783 687.342 386.05C687.808 382.317 689.675 379.05 692.942 376.25C696.442 373.217 701.225 371.233 707.292 370.3C713.592 369.367 720.008 368.9 726.542 368.9C732.842 368.9 738.908 369.133 744.742 369.6C750.575 370.067 755.358 370.3 759.092 370.3C759.092 370.3 761.775 370.3 767.142 370.3C772.508 370.3 779.275 370.3 787.442 370.3C795.842 370.067 804.708 369.95 814.042 369.95C823.375 369.95 831.892 369.95 839.592 369.95L832.242 379.05C825.242 379.05 818.242 379.05 811.242 379.05C804.475 378.817 797.592 378.7 790.592 378.7C798.058 383.6 803.542 390.017 807.042 397.95C810.775 405.883 813.225 414.167 814.392 422.8C815.558 431.433 816.142 439.483 816.142 446.95C816.142 449.983 816.025 452.9 815.792 455.7C815.792 458.5 815.792 460.95 815.792 463.05C815.325 474.017 813.808 487.2 811.242 502.6C808.675 518 805.408 532.583 801.442 546.35C809.142 535.617 817.775 522.9 827.342 508.2C837.142 493.267 848.108 477.633 860.242 461.3C872.608 444.733 886.025 428.75 900.492 413.35C906.325 407.283 912.508 401.1 919.042 394.8C925.575 388.5 932.575 383.25 940.042 379.05C947.508 374.85 955.558 372.75 964.192 372.75C971.658 372.75 977.375 373.917 981.342 376.25L979.242 380.1C978.308 379.867 977.375 379.75 976.442 379.75C975.742 379.517 974.808 379.4 973.642 379.4C967.108 379.4 960.108 381.383 952.642 385.35C945.408 389.317 939.808 393.283 935.842 397.25C928.608 404.483 923.008 413.117 919.042 423.15C915.075 432.95 912.158 443.45 910.292 454.65C908.658 465.617 907.375 476.817 906.442 488.25C905.508 499.45 904.575 510.067 903.642 520.1C902.942 530.133 901.542 538.883 899.442 546.35C909.008 532.817 920.792 516.717 934.792 498.05C949.025 479.383 965.242 460.017 983.442 439.95C1001.64 419.65 1021.59 400.4 1043.29 382.2C1047.73 378.467 1053.44 374.267 1060.44 369.6C1067.68 364.933 1075.26 360.967 1083.19 357.7C1091.36 354.2 1099.06 352.45 1106.29 352.45C1113.06 352.45 1117.73 353.617 1120.29 355.95C1123.09 358.283 1124.49 361.317 1124.49 365.05C1124.49 369.483 1123.09 374.383 1120.29 379.75C1117.73 385.117 1115.74 389.55 1114.34 393.05C1114.11 393.75 1113.06 394.217 1111.19 394.45C1109.33 394.683 1108.51 394.333 1108.74 393.4C1109.21 391.533 1109.68 389.317 1110.14 386.75C1110.84 383.95 1111.19 381.15 1111.19 378.35C1111.19 374.617 1110.49 371.233 1109.09 368.2C1107.69 365.167 1105.01 363.417 1101.04 362.95C1100.34 362.717 1099.64 362.6 1098.94 362.6C1098.24 362.6 1097.54 362.6 1096.84 362.6C1090.31 362.6 1083.19 364.933 1075.49 369.6C1067.79 374.033 1058.93 380.333 1048.89 388.5C1029.29 404.133 1010.51 421.4 992.542 440.3C974.575 458.967 957.542 478.567 941.442 499.1C933.042 509.6 924.875 520.217 916.942 530.95C909.008 541.683 901.658 552.883 894.892 564.55C894.425 565.483 893.958 566.533 893.492 567.7C893.258 569.1 892.908 570.15 892.442 570.85C891.975 571.317 890.575 572.017 888.242 572.95C885.908 574.117 883.575 575.05 881.242 575.75C879.142 576.683 877.742 577.15 877.042 577.15C875.175 577.15 873.658 576.8 872.492 576.1C871.325 575.633 870.858 574.467 871.092 572.6C871.092 571.9 871.442 570.85 872.142 569.45C872.842 568.05 873.308 567 873.542 566.3C874.708 563.033 875.758 559.767 876.692 556.5C877.625 553 878.558 549.733 879.492 546.7C882.292 536.433 884.275 525.583 885.442 514.15C886.842 502.717 888.125 491.283 889.292 479.85C890.692 468.183 892.792 456.983 895.592 446.25C898.392 435.517 902.708 425.833 908.542 417.2C903.875 420 897.225 426.883 888.592 437.85C879.958 448.583 869.458 461.65 857.092 477.05C852.892 482.183 848.225 488.6 843.092 496.3C837.958 503.767 832.708 511.7 827.342 520.1C822.208 528.267 817.192 536.317 812.292 544.25C807.625 551.95 803.658 558.717 800.392 564.55C799.925 565.483 799.458 566.533 798.992 567.7C798.758 569.1 798.408 570.15 797.942 570.85C797.475 571.317 795.725 572.017 792.692 572.95C789.892 574.117 787.092 575.05 784.292 575.75C781.492 576.683 779.742 577.15 779.042 577.15Z" fill="#5E5E5E"/>
</svg>
